<?xml version="1.0" encoding="utf-8"?>
<!-- Generator: Adobe Illustrator 23.0.6, SVG Export Plug-In . SVG Version: 6.00 Build 0)  -->
<svg version="1.1" id="Layer_1" xmlns="http://www.w3.org/2000/svg" xmlns:xlink="http://www.w3.org/1999/xlink" x="0px" y="0px"
	 viewBox="0 0 48.93 179.7" style="enable-background:new 0 0 48.93 179.7;" xml:space="preserve">
<style type="text/css">
	.st0{fill:#31376C;}
	.st1{fill:#E2A6A7;}
</style>
<path class="st0" d="M2.65,179.13c-6.27-18.94-0.5-36.06,7.99-52.76c3.22-6.34,6.89-12.42,10.81-18.35
	c11.83-17.87,12.99-36.34,3.64-55.64c-2.92-6.03-5.96-12.05-7.13-18.8c-0.79-4.58-0.63-8.99,1.5-13.11C25.67,8.5,34.95,0.84,48.93,0
	c0,39.75,0,79.5,0,119.25c-1.75,0.74-2.83-0.48-3.94-1.42c-1.52-1.29-3.05-2.58-4.7-3.7c-1.39-0.94-2.92-1.73-4.4-0.25
	c-1.41,1.42-0.82,3.02,0.04,4.47c1.46,2.48,3.34,4.66,5.07,6.94c2.76,3.65,6.38,6.7,7.93,11.2c0,3.75,0,7.5,0,11.25
	c-2.87,0.23-4.09-2.13-5.5-3.83c-4.26-5.1-8.96-9.71-14.09-13.91c-1.06-0.87-2.1-1.78-3.24-2.54c-1.1-0.73-2.27-2.08-3.63-0.9
	c-1.55,1.35-0.83,3.09,0.16,4.4c3.15,4.19,6.9,7.88,10.45,11.71c5.2,5.6,9.53,11.85,14.2,17.86c0.87,1.12,0.99,2.53,1.66,3.71
	c0,2.75,0,5.5,0,8.25c-2.33,0.47-3.27-1.44-4.43-2.76c-4.91-5.62-9.76-11.28-15.15-16.45c-0.63-0.6-1.21-1.26-1.88-1.81
	c-0.67-0.55-1.37-1.24-2.31-0.65c-0.97,0.62-1.07,1.62-0.83,2.65c0.32,1.36,1.1,2.5,1.86,3.63c1.79,2.69,3.6,5.37,5.15,8.22
	c0.98,1.8,1.59,3.39-1.39,4.15c-2.49,0.64-2.77,2.12-1.1,4.06c0.97,1.13,2.44,1.78,3.23,3.07c0.81,1.32,1.76,2.86-1.06,3
	c-8.28-0.01-16.56,0.02-24.83-0.03C5.02,179.59,3.73,180.04,2.65,179.13z"/>
<path class="st1" d="M48.93,179.25c-5.48-0.02-10.97-0.04-16.45-0.06c-0.51-2.16-2.44-3.03-3.91-4.33
	c-1.52-1.34-3.14-2.53-1.85-5.01c1.14-2.21,2.77-2.04,5.19-0.8c-1.61-4.16-3.91-7.06-5.78-10.19c-0.9-1.5-1.82-2.98-2.78-4.44
	c-1.38-2.1-0.11-3.55,1.23-4.92c1.72-1.75,2.7,0.02,3.63,1c5.47,5.83,10.86,11.73,16.31,17.58c1.42,1.52,2.42,3.47,4.43,4.4
	C48.93,174.75,48.93,177,48.93,179.25z"/>
<path class="st1" d="M48.93,164.25c-8.29-10.93-16.76-21.72-26.41-31.52c-0.69-0.7-1.21-1.59-1.71-2.45
	c-1.11-1.92-0.55-3.68,0.85-5.13c1.51-1.55,2.8-0.09,3.93,0.7c7.73,5.41,14.15,12.22,20.37,19.24c0.87,0.98,1.45,2.37,2.97,2.66
	C48.93,153.25,48.93,158.75,48.93,164.25z"/>
<path class="st1" d="M48.93,136.5c-4.58-5.7-9.21-11.35-13.71-17.11c-1.6-2.05-2.51-4.29-0.16-6.62c2.44-2.41,4.24-0.47,6.22,0.69
	c2.78,1.63,4.67,4.42,7.65,5.79C48.93,125,48.93,130.75,48.93,136.5z"/>
</svg>
