<svg xmlns="http://www.w3.org/2000/svg" version="1.1" viewBox="0 0 184.5 78.4">
			<path fill="#31376c" d="M0 0v78.4h147.15s2.29-5.13-4.23-11.88C136.4 59.77 131.5 51.83 91.5 54.5S36.5 3 0 0z"/>
			<path fill="#e2a6a7" d="M101.33 56.07c2.1.96 1.17 1.33 2.17 2.33 4 6 3 13 5 20h-7c-3-3-2-5-2-8-2 2-2 6-5 8h-6l10-20 2.83-2.33zM170.58 78.52h-7c2-7 8-12 13-18l4-1c2 1 3 3 3 5v14h-7c.06-1.17 3.51-6.09.99-9.5-4.18 3.93-4.74 7.72-6.99 9.5zM139.38 78.52l5-10 7-5c3-2 5-1 7 2 2 4 1 9 1 13h-7l-.04-8.69-4.96 5.36-1 3.33h-7zM114 78.4c4-6 7-12 12-16 2-2 4-4 7-3s3 4 3 7v12h-7l-.13-8.02L122 78.4h-8z"/>
		</svg>