<svg xmlns="http://www.w3.org/2000/svg" width="370" height="267.09" viewBox="0 0 370 267.09">
  <title>connect-bg</title>
  <path d="M186,266.77l-64.84-.21a6.41,6.41,0,0,1-1.06-4.23c0-4.38-2.26-6.68-6.48-6.93-5.11-.3-5.66,3.25-5.67,7.13a7.21,7.21,0,0,1-1.11,4.24l-21.91.1c-7.86-29.57,7.56-69.84,34-88.93,2.46-1.78,7.25-3.31,1-6.5,3.61-3.69,7.83-3.71,12.32-2,20.35-7.61,38.47-18.67,53.08-34.93,14.16-15.77,17.28-34.65,14.51-54.9a132.78,132.78,0,0,1-.53-33.9c1.5-12.34,10.06-21,20.11-27.23C264.05-9,324.11-5.55,357.36,44.51c2.88,4.32,5.89,8.56,8.84,12.84.06,67.33,2,141,2.16,208.35,0,5.19-2.9,1.37-8.89,1.34-54.17-.27-108.35-.27-162.52-.34a3.89,3.89,0,0,1-.93-1.52c-1.06-3.87-.74-9.67-6.6-8.85C183,257.24,187.35,263.29,186,266.77Z" transform="translate(1.64 -1.33)" style="fill: #e2a6a7"/>
  <path d="M73.92,227.9C72.8,234,71,239.46,63.76,238.53c-5.94-.77-11.74-3.37-11-10.75.53-5.56,2.9-11.2,10.06-10.53C69,217.84,73.48,221.21,73.92,227.9Z" transform="translate(1.64 -1.33)" style="fill: #282f56"/>
  <path d="M136.25,176.8c-3.62,3.66-8.18,1.59-12.33,2-5.48-5.45-5.15-10.81.59-15.72,3-2.53,6.38-3.58,10.06-1,3.39,2.4,5.08,5.11,2.9,9.32C136.67,173.05,136.63,175,136.25,176.8Z" transform="translate(1.64 -1.33)" style="fill: #282f56"/>
  <path d="M141.32,128.4c.93-6.3,3.18-10.38,10.4-10.27,5.21.07,6.9,3.45,8.06,7.05.88,2.71-8,12.76-10.44,12.26C144.4,136.44,141.29,133.54,141.32,128.4Z" transform="translate(1.64 -1.33)" style="fill: #282f56"/>
  <path d="M25.08,133.31c3.66.52,8.42,1.28,7.19,5.89-1,3.88-1.11,11-8.16,9.69-4.16-.75-11.07,0-10.38-7.29C14.32,135.42,19.49,133.69,25.08,133.31Z" transform="translate(1.64 -1.33)" style="fill: #282f56"/>
  <path d="M74,187.12c1.19-3.4,1.24-8.34,6.77-7.85,6.5.57,9.62,4.89,9.49,11.18-.09,4.21-2.54,7.05-7,6.31C78.06,195.91,74,193.48,74,187.12Z" transform="translate(1.64 -1.33)" style="fill: #282f56"/>
  <path d="M5.17,219.37c-3.35-.46-6.84-.4-6.81-4.9,0-3.79,2.21-6.91,5.61-7.08,4.15-.21,6,3.35,6,7.31C10,217.89,8.21,219.57,5.17,219.37Z" transform="translate(1.64 -1.33)" style="fill: #282f56"/>
  <path d="M43.5,180.68c-.4,4.4-1.08,8.46-6.45,8.53-4.27,0-8.33-1.13-8.08-6.42.22-4.57,2.72-8.5,7.65-8.8C40.75,173.74,43.21,176.61,43.5,180.68Z" transform="translate(1.64 -1.33)" style="fill: #282f56"/>
  <path d="M112.74,120.86c3.85,1,7.64,2.1,7.23,6.84-.44,5-3.66,9-8.5,9.34-3.84.26-6.34-3.49-6.39-7.56C105,124.43,108.26,121.92,112.74,120.86Z" transform="translate(1.64 -1.33)" style="fill: #282f56"/>
  <path d="M81.22,150.61c-2,2.68-2.85,7.41-8,6.83-3.29-.37-7.15-1.31-6.72-5.81.47-5,3.8-7.66,8.76-7.14C78.32,144.8,81.29,146.17,81.22,150.61Z" transform="translate(1.64 -1.33)" style="fill: #282f56"/>
  <path d="M32.43,266.13,9.1,265.85c3.55-6.11,9.44-8.45,15.89-8.1C29.24,258,32.91,260.72,32.43,266.13Z" transform="translate(1.64 -1.33)" style="fill: #282f56"/>
  <path d="M49,118.37c2.78.39,2.21,3,2.44,4.54.35,2.33-1.36,3.42-3.67,3.22-2.06-.19-4.07-.74-3.52-3.43A5.25,5.25,0,0,1,49,118.37Z" transform="translate(1.64 -1.33)" style="fill: #282f56"/>
  <path d="M106.83,267c-2.79-4.44-4.19-9.46.3-13,4.07-3.23,9.19-2.06,13.49.87,5.44,3.69,2,7.89.53,12Z" transform="translate(1.64 -1.33)" style="fill: #282f56"/>
  <path d="M186,266.66c-3.54-3-6.09-6.55-2.62-11,2.42-3.1,5.92-4.3,9.84-2.34,6.07,3,5.89,7.87,3.74,13.24Z" transform="translate(1.64 -1.33)" style="fill: #282f56"/>
  <path d="M219.76,182.53c5.85.64,10.82,2.58,10.79,9.68,0,5.46-2.83,9.46-8.41,10.29-4.76.72-12.43-6.21-11.82-10.63C211,186.71,213.55,182.68,219.76,182.53Z" transform="translate(1.64 -1.33)" style="fill: #282f56"/>
  <path d="M233.35,252.64c-1.77,7.06-8.17,8.42-14,9.21-5.41.73-7.34-4-7.19-8.52.22-6.26,3.89-10.54,10.35-10.46C228.23,242.94,232.05,246.45,233.35,252.64Z" transform="translate(1.64 -1.33)" style="fill: #282f56"/>
  <path d="M124.4,192.48c7,1.13,11.82,4.1,11.73,11.09-.07,5.18-3.38,8.75-8.73,8.34-6-.46-10.67-4.07-10.58-10.31C116.88,197.19,119.47,192.92,124.4,192.48Z" transform="translate(1.64 -1.33)" style="fill: #282f56"/>
  <path d="M259.62,179c5.51.56,10.56,2.4,11.22,8.54.46,4.22-2.47,8.46-7,7.24-4.91-1.31-12.73-.06-12.89-8.63C250.8,180.53,255,179.42,259.62,179Z" transform="translate(1.64 -1.33)" style="fill: #282f56"/>
  <path d="M202.42,214.91c-1,4.1-2.42,8.17-7.45,7.68-5.33-.52-9.35-3.82-9.51-9.4-.11-3.93,1.63-8.5,6.62-8.19C197.78,205.35,201.31,209.15,202.42,214.91Z" transform="translate(1.64 -1.33)" style="fill: #282f56"/>
  <path d="M166.56,239.64c.12,2-1.93,4.43-6,4-4.38-.47-10.56-.58-10.85-6-.28-5.11,4.25-8.44,9.84-8.83C166,228.36,165.68,233.3,166.56,239.64Z" transform="translate(1.64 -1.33)" style="fill: #282f56"/>
  <path d="M170.48,171.4c4.55,2,8.3,4.71,8.31,9.94,0,4.13-2.61,7.28-6.82,6.74s-9.14-2.37-8.93-7.43A10.4,10.4,0,0,1,170.48,171.4Z" transform="translate(1.64 -1.33)" style="fill: #282f56"/>
  <path d="M229.64,154.29c-2.42,5.37-5.76,7.34-10.64,6.46-4-.71-6-3.07-5.16-7,.95-4.5,3.95-6.9,8.61-5.79C226.09,148.8,228.17,151.67,229.64,154.29Z" transform="translate(1.64 -1.33)" style="fill: #282f56"/>
  <path d="M271,256.33c-.36,3.82-2.67,5.72-6,5.38-4.29-.42-8.55-1.85-8.83-7.17-.21-4.08,2.32-6,6.34-5.69C267.07,249.27,270.38,251.36,271,256.33Z" transform="translate(1.64 -1.33)" style="fill: #282f56"/>
  <path d="M193.3,148.43c-.66,3.95-3.54,6.62-6.84,5.82-3-.72-8.09-1.62-7.72-6.19.31-4,4-6.16,8-6.13S192.41,144.91,193.3,148.43Z" transform="translate(1.64 -1.33)" style="fill: #282f56"/>
  <path d="M251.51,225.67c-.87,3.14-3.66,3.28-6.36,3.2-3.81-.11-6.61-2.43-7-5.91s2.92-4.4,5.74-4.23C247.92,219,250.6,221.24,251.51,225.67Z" transform="translate(1.64 -1.33)" style="fill: #282f56"/>
  <path d="M282,221c-1,2.5-2.51,4.37-5.34,3.82-3.08-.6-4.43-2.83-4.33-5.94s2.32-3.31,4.45-3.07A5.54,5.54,0,0,1,282,221Z" transform="translate(1.64 -1.33)" style="fill: #282f56"/>
</svg>
