<svg xmlns="http://www.w3.org/2000/svg" id="Layer_1" x="0" y="0" version="1.1" viewBox="0 0 808.53 748.58" xml:space="preserve">
  <style>
    .st1{fill:#b28b67}.st2{fill:#191847}.st3{fill:#282f56}.st5{fill:#31376c}.st9{fill:#e2a6a7}.st11{fill:#fff}.st12{fill:#3f3d56}.st13{fill:#faeade}
  </style>
  <g id="hello-image" transform="translate(-.175)">
    <path id="Path_39" fill="#6b86db" stroke="#282f56" d="M3.95 677.87s-21.23-54.48 44.58-49.53 112.5-29.01 139.39 0 128.78-.71 198.12 0 33.26 31.84 129.49 22.64 331.14-52.36 287.28 5.66-53.78 113.21-292.23 82.79-338.22-31.84-416.76-19.1-89.87-42.46-89.87-42.46z"/>
    <g id="Group_3" transform="translate(162 103)">
      <g id="Head" transform="translate(282.127 166)">
        <path id="Head-2" d="M40.94 15.03c.52 7.43-2.6 14.06-7.21 19.46L42 73H18l4.07-28.76c-6.48 3.9-12.84 5.79-15.82 5.02-7.49-1.93-8.18-29.33-2.38-40.13C6.7 3.83 15.32 0 23.55 0c8.53 0 16.63 4.13 17.39 15.03z" class="st1"/>
      </g>
      <path id="Hair" d="M304.03 209.07c1.61-4.87 2.23-18.89 2.38-23.03.24-.03.48-.04.72-.04 3.31 0 6 2.69 6 6 0 1.62-.65 3.16-1.81 4.29 1.39 1.96 2.94 4.01 4.73 6.12 6.7-4.02 11.67-15.78 5.12-27.08-1.81-5.54-5.91-8.49-10.75-9.87a17.38 17.38 0 00-11.42-.84c-6.73.58-12.75 2.63-14.45 3.85 0 6.38 1.24 8.27 11.79 8.1 2.59 1.37 4.59 3.73 6.66 6.82-.01.21-1.41 19.2-7.29 19.2-5.91 0-10.93-3.75-13.52-3.75-1.89 0-1.47 2.37-.21 4.12 1.03 1.45 6.07 2.84 6.07 5.09 0 1.27-1.27 1.26-2.37 1.26-.85 0-1.61 0-1.61.58 0 2.2-.7 6.34 3.12 6.34 3.85-.01 14.94-1.42 16.84-7.16z" class="st2"/>
      <path id="Leg" d="M338.83 330l-36.26 127.23L276.12 551h-19.29l28.11-221h53.89z" class="st3"/>
      <path id="Leg-2" fill="#4d5da3" d="M348.53 330c.84 65.57 3.7 101.34 4.58 107.3.88 5.96 14.19 43.86 39.93 113.7h-19.99c-32.78-67-51.07-104.9-54.89-113.7-3.82-8.8-15.6-44.57-33.34-107.3h63.71z"/>
      <path id="Shoe" d="M278.83 569l-1-21h-21c-14.94 10.5-39 17-39 17v4h38l13-2v2h10z" class="st3"/>
      <path id="Shoe-2" d="M394.83 569l-1-21h-21c-14.94 10.5-39 17-39 17v4h38l13-2v2h10z" class="st2"/>
      <path id="Skin" d="M409.44 399c1.12-.69 2.34-3.28-.62-5.3-7.36-5.05-17.96-13.88-19.39-16.79-2.93-5.94-12.91-63.89-12.91-63.89l-20.9.08s19.35 62.48 20.9 66.3c2.32 5.74-2.58 14.47-4.68 19.16 3.3 1.48 4.83-.41 6.51-2.29 1.79-2.01 3.75-4.02 8.18-1.95 5.68 2.64 10.38 6.84 15.98 6.84 2.47-.05 4.87-.8 6.93-2.16zm-178.7-56.23l29.45-17.37-9.41-16.28-28.33 27.63a85.79 85.79 0 00-20.26 11.65c-1.18 1.43-2.47 4.16 3.1 2.94s11.49-2.26 12.53-.45-2.04 4.59-.1 6.96c.14.18.36.29.59.28 1.78.01 5.92-5.12 12.43-15.36z" class="st1"/>
      <path id="Coat_Back" d="M317.15 225.36l-8.65-1.48c-14.89 37.18-40.88 70.96-77.97 101.34l28.02 34.05c37.09-43.26 59.96-87.9 58.6-133.91z" class="st5"/>
      <path id="Shirt" fill="#dde3e9" d="M354.83 334h-77s26.76-65.06 26.76-110.54l23.23-3.46c18.25 29.36 23.41 65.5 27.01 114z"/>
      <path id="Coat_Front" d="M389.83 367c-8.42-95-61.5-147-61.5-147l-.02.02-.01-.02h-1.52c-2.72.09-8.29.34-8.29.34l-5.61 16.04c-.89 29.33-10.4 118.23-10.4 118.23h50.4c-.09 4.08-.28 8.21-.58 12.39h37.53z" class="st5"/>
      <path id="Shade" d="M338.83 355h14.04c.34-16.58-.93-33.16-3.8-49.5a268.65 268.65 0 01-3.39 27.69c-1.83 9.91-4.13 17.24-6.85 21.81z" opacity=".1"/>
      <path id="Light" fill="#fff" d="M341.72 324l-24.89-11.57V324h24.89z" opacity=".2"/>
    </g>
    <g id="Group_2" transform="translate(-350)">
      <path id="Path_1" d="M516.37 673.02l-1.39-1.44c.27-.26 27.55-26.98 37.95-76.9 9.6-46.1 6.36-121.99-63.61-221.77-29.24-41.69-49.17-81.08-59.26-117.07-8.24-29.41-9.98-56.75-5.19-81.26 9.49-48.46 41.74-69.73 42.06-69.94l1.08 1.68c-.32.21-31.9 21.08-41.2 68.71-10.67 54.64 10.9 120.84 64.13 196.74 31.08 44.32 51.77 87.72 61.5 128.99 7.79 33.06 8.6 64.84 2.41 94.46-10.53 50.47-38.2 77.53-38.48 77.8z" class="st9"/>
      <circle id="Ellipse_1" cx="449.23" cy="138.84" r="77.41" class="st9"/>
      <path id="Path_2" d="M467.48 210.95c-58.25 0-105.48-47.22-105.48-105.48S409.23-.01 467.48 0c58.25 0 105.48 47.22 105.48 105.48 0 58.25-47.23 105.47-105.48 105.47zm0-208.95C410.33 2 364 48.32 364 105.47s46.33 103.48 103.48 103.48 103.48-46.33 103.48-103.47C570.96 48.33 524.63 2 467.48 2z" class="st9"/>
      <circle id="Ellipse_2" cx="526.64" cy="314.43" r="64.2" class="st9"/>
      <circle id="Ellipse_3" cx="493.91" cy="537.23" r="64.2" class="st9"/>
      <path id="Rectangle_1" fill="#6b86db" d="M524.45 105.47h235v153h-235z"/>
      <path id="Path_3" d="M1078.98 673H861.34s-4.41-64.7 21.69-65.44 23.16 28.68 55.88-11.76 72.42-38.23 77.57-14.34-9.93 43.01 17.65 37.13 67.28 9.56 44.85 54.41z" class="st9"/>
      <path id="Path_4" d="M966.49 673.01l-.73-.03c1.71-42.6 10.64-69.97 17.82-85.43 7.8-16.79 15.31-23.58 15.39-23.65l.49.55c-.07.07-7.5 6.79-15.24 23.47-7.15 15.4-16.03 42.65-17.73 85.09z" class="st11"/>
      <path id="Path_5" d="M1045.26 673.1l-.71-.21a114.067 114.067 0 0128.72-47.78l.49.54a113.603 113.603 0 00-28.5 47.45z" class="st11"/>
      <path id="Path_6" d="M895.62 673.05l-.73-.1a80.154 80.154 0 00-7.2-46.81 64.608 64.608 0 00-11.37-16.59l.51-.53a65.53 65.53 0 0111.52 16.79 80.87 80.87 0 017.27 47.24z" class="st11"/>
      <path id="Path_36" d="M730.9 454.89c-.3-.07-29.96-7.28-41.24-35.89-12.86-32.62 2.26-78.61 44.95-136.71 52.14-70.96 54.97-94.8 48.16-102.31-8.61-9.5-35.63 3.36-35.9 3.49l-.9-1.7c1.17-.56 28.68-13.65 38.31-3.04 10.58 11.67-5.58 46.88-48.04 104.66-23.13 31.48-38.25 59.74-44.94 83.99-5.42 19.66-5.35 36.79.21 50.92 10.9 27.68 39.57 34.67 39.85 34.74l-.46 1.85z" class="st12"/>
      <path id="Path_37" d="M747.42 243h-251V79h251v164zm-249-2h247V81h-247v160z" class="st12"/>
    </g>
    <path id="Path_40" d="M759.25 103.86c3.67-.05 6.34 1.05 6.27 5.36-.37.43-.67 1.02-1.14 1.25-2.41 1.2-5.09 3.96-7.5.83-2.31-2.99-.43-5.58 2.37-7.44z" class="st5"/>
    <path id="Path_69" d="M304.25 627.86c3.67-.05 6.34 1.05 6.27 5.36-.37.43-.67 1.02-1.14 1.25-2.41 1.2-5.09 3.96-7.5.83-2.31-2.99-.43-5.58 2.37-7.44z" class="st5"/>
    <path id="Path_76" d="M103.82 48.03c-1.99-3.08-2.47-5.94 1.23-8.16.56.09 1.22.02 1.67.3 2.3 1.41 6.05 2.22 4.68 5.92-1.33 3.55-4.52 3.32-7.58 1.94z" class="st5"/>
    <path id="Path_41" d="M672.01 64.38c3.29.42 5.32 1.92 5.45 4.92.1 2.15-1.1 4.15-3.46 4.1-2.73-.06-5.25-1.45-5.34-4.51a4.248 4.248 0 013.35-4.51z" class="st5"/>
    <path id="Path_42" d="M671.98 113.27c-1.41 1.4-1.03 4.44-4.02 4.32-2.66-.11-4.85-1.17-4.96-4.3-.1-2.78 1.53-3.78 4.13-3.77 2.52 0 4.02 1.19 4.85 3.75z" class="st5"/>
    <path id="Path_43" d="M746.92 146.8c-.37 2.15-.14 4.97-3.19 5.13-2.6.14-4.39-1.45-4.27-4.32.09-2.33.25-4.98 3.49-4.87 2.28.08 4.27 1.08 3.97 4.06z" class="st5"/>
    <path id="Path_65" d="M291.92 670.8c-.37 2.15-.14 4.97-3.19 5.13-2.6.14-4.39-1.45-4.27-4.32.09-2.33.25-4.98 3.49-4.87 2.28.08 4.27 1.08 3.97 4.06z" class="st5"/>
    <path id="Path_72" d="M146.77 35.73c2.02-.83 4.28-2.52 6.04-.02 1.5 2.13 1.09 4.49-1.4 5.91-2.02 1.15-4.36 2.43-5.98-.38-1.15-1.97-1.35-4.19 1.34-5.51z" class="st5"/>
    <path id="Path_45" d="M731.94 76.57c1.28-1.81 2.49-3.75 5.17-2.01 2.88 1.87 3.09 4.29 1.52 7.1-4.85.53-5.96-.32-6.69-5.09z" class="st5"/>
    <path id="Path_46" d="M707.29 92.18c1.86-.14 1.73 2.15 1.92 3.86.29 1.26-.5 2.52-1.77 2.81-.36.08-.74.08-1.1-.02-1.9-.34-4.88-.23-4.7-3.07.13-2.23 2.23-3.49 5.65-3.58z" class="st5"/>
    <path id="Path_70" d="M252.29 616.18c1.86-.14 1.73 2.15 1.92 3.86.29 1.26-.5 2.52-1.77 2.81-.36.08-.74.08-1.1-.02-1.9-.34-4.88-.23-4.7-3.07.13-2.23 2.23-3.49 5.65-3.58z" class="st5"/>
    <path id="Path_77" d="M121.45 98.28c-1.1-1.5.91-2.6 2.25-3.67a2.35 2.35 0 013.32.01c.26.26.46.59.57.94.72 1.79 2.39 4.26-.11 5.61-1.96 1.07-4.14-.04-6.03-2.89z" class="st5"/>
    <path id="Path_47" d="M733.84 116.2c-2.64.01-4.57-.73-4.85-3.17-.28-2.44 1.64-3.24 3.64-3.33a3.3 3.3 0 013.81 3.26c.18 2.12-.71 3.34-2.6 3.24z" class="st5"/>
    <path id="Path_68" d="M278.84 640.2c-2.64.01-4.57-.73-4.85-3.17s1.64-3.24 3.64-3.33a3.3 3.3 0 013.81 3.26c.18 2.12-.71 3.34-2.6 3.24z" class="st5"/>
    <path id="Path_75" d="M127.74 63.04c1.41 2.23 1.8 4.26-.12 5.79s-3.62.33-4.75-1.32a3.303 3.303 0 01.75-4.96c1.7-1.27 3.21-1.17 4.12.49z" class="st5"/>
    <path id="Path_48" d="M719.42 140.03c.26 2.64-1.52 3.13-3.54 3.19-2.19.07-3.1-1.27-2.99-3.3.1-1.82.61-3.65 2.8-3.66a3.372 3.372 0 013.73 2.97c.03.26.03.53 0 .8z" class="st5"/>
    <path id="Path_66" d="M264.42 664.03c.26 2.64-1.52 3.13-3.54 3.19-2.19.07-3.1-1.27-2.99-3.3.1-1.82.61-3.65 2.8-3.66a3.372 3.372 0 013.73 2.97c.03.26.03.53 0 .8z" class="st5"/>
    <path id="Path_73" d="M155.6 62.64c2.11-1.62 3.46-.37 4.58 1.31 1.22 1.83.57 3.3-1.21 4.29-1.59.88-3.41 1.41-4.59-.44a3.371 3.371 0 01.54-4.74c.21-.16.43-.3.68-.42z" class="st5"/>
    <path id="Path_50" d="M690.12 139.42c1.39.42 2.97 1.02 2.87 2.68a2.876 2.876 0 01-3.04 2.7c-.09-.01-.18-.01-.26-.03-1.65-.07-2.79-.87-2.51-2.72a2.833 2.833 0 012.94-2.63z" class="st5"/>
    <path id="Path_67" d="M235.12 663.42c1.39.42 2.97 1.02 2.87 2.68a2.876 2.876 0 01-3.04 2.7c-.09-.01-.18-.01-.26-.03-1.65-.07-2.79-.87-2.51-2.72a2.833 2.833 0 012.94-2.63z" class="st5"/>
    <path id="Path_74" d="M170.61 87.81c-.38-1.4-.71-3.06.75-3.85 1.39-.76 3.14-.25 3.9 1.14l.12.24c.81 1.44.74 2.82-.98 3.57a2.85 2.85 0 01-3.79-1.1z" class="st5"/>
    <path id="Path_51" d="M758.59 56.76c2.53.53 4.94 1.33 5.04 4.44.08 2.65-1.36 4.81-4.03 4.65-2.64-.16-5.2-1.77-5.17-4.86a4.155 4.155 0 014.08-4.23c.03.01.06 0 .08 0z" class="st5"/>
    <path id="Path_52" d="M672.45 41.61c-2.64.35-4.03-1.07-4.08-3.37a4.609 4.609 0 014.84-5 3.204 3.204 0 013.46 2.92c.02.23.01.46-.02.69-.35 2.23-.61 5.22-4.2 4.76z" class="st5"/>
    <path id="Path_53" d="M699.26 7.02c1.7-.19 3.26.98 3.54 2.67.35 1.39-3.22 6.19-4.43 5.99-2.16-.35-3.75-1.57-3.89-3.94-.15-2.72 1.83-4.73 4.78-4.72z" class="st5"/>
    <path id="Path_54" d="M797.68 53.49c2.4.62 5 .94 5.21 3.89.15 2.08-1.21 3.98-3.33 3.52-2.22-.48-5.6-.23-5.59-4.1.01-2.61 2.11-2.71 3.71-3.31z" class="st5"/>
    <path id="Path_71" d="M323.37 607.33c1.94.33 3.55 1.04 3.72 3.06.12 1.5-1.38 1.78-2.43 1.79-1.86.01-3.41-.9-3.55-2.92-.1-1.4 1.23-1.7 2.26-1.93z" class="st5"/>
    <path id="Path_78" d="M76.28 42.69c-.75-1.82-1-3.57.62-4.78 1.21-.9 2.25.23 2.81 1.12.99 1.57 1.05 3.37-.6 4.56-1.14.82-2.1-.14-2.83-.9z" class="st5"/>
  </g>
  <path d="M300 199.99h-8.4v-17.32h-19.06v17.32h-8.4v-42.63h8.4v17.2h19.06v-17.2h8.4v42.63zM319.4 157.35v42.63H311v-42.63h8.4z" class="st13"/>
</svg>